<?xml version="1.0" standalone="no"?>
<!DOCTYPE svg PUBLIC "-//W3C//DTD SVG 20010904//EN"
 "http://www.w3.org/TR/2001/REC-SVG-20010904/DTD/svg10.dtd">
<svg version="1.0" xmlns="http://www.w3.org/2000/svg"
 width="1280.000000pt" height="1280.000000pt" viewBox="0 0 1280.000000 1280.000000"
 preserveAspectRatio="xMidYMid meet">
<metadata>
Created by potrace 1.14, written by Peter Selinger 2001-2017
</metadata>
<g transform="translate(0.000000,1280.000000) scale(0.100000,-0.100000)"
fill="#000000" stroke="none">
<path d="M8902 12045 c-654 -240 -1062 -419 -1413 -621 -593 -340 -988 -764
-1202 -1289 -45 -110 -121 -343 -152 -465 -24 -94 -39 -117 -84 -131 -62 -18
-103 8 -175 111 -96 139 -185 237 -432 476 l-235 227 -84 166 c-90 176 -136
245 -198 295 -35 28 -45 31 -111 31 -70 0 -74 -1 -196 -71 -69 -39 -179 -100
-245 -134 -155 -82 -429 -267 -995 -671 -804 -575 -1051 -733 -1490 -956 -113
-58 -213 -114 -222 -125 -26 -30 -23 -84 7 -113 29 -30 40 -30 165 -5 223 45
343 54 715 50 659 -8 801 -5 920 14 411 67 744 216 1085 486 127 100 189 131
264 131 67 0 108 -20 204 -100 53 -44 88 -65 130 -77 69 -20 102 -47 102 -85
0 -43 -39 -137 -73 -175 -56 -64 -72 -68 -277 -70 -159 0 -195 -4 -258 -23
-324 -97 -578 -372 -664 -718 -26 -104 -31 -320 -10 -418 31 -142 88 -286 167
-424 26 -45 46 -83 44 -85 -2 -1 -105 -12 -229 -25 -124 -12 -331 -33 -460
-46 -343 -35 -505 -45 -723 -45 -184 0 -195 1 -213 21 -34 38 -97 67 -223 104
-68 20 -137 43 -152 50 -15 8 -72 26 -126 41 -78 21 -122 27 -218 28 -132 1
-189 -10 -305 -57 -144 -58 -239 -135 -276 -224 -20 -48 -19 -149 2 -204 48
-125 200 -291 341 -373 103 -61 207 -100 360 -137 185 -44 197 -53 233 -164
77 -238 218 -450 457 -690 183 -184 220 -253 243 -455 12 -106 46 -233 83
-305 59 -118 175 -247 288 -324 122 -81 183 -78 205 9 7 25 12 108 12 185 0
132 16 265 32 265 4 0 30 -56 59 -124 68 -163 147 -282 248 -372 140 -127 182
-144 258 -109 40 19 59 55 58 103 -5 147 -2 363 7 418 25 158 74 196 388 298
245 80 365 125 569 215 213 94 351 146 452 172 93 24 102 24 133 -1 35 -27 37
-49 40 -460 2 -422 9 -396 -129 -513 -365 -309 -633 -699 -773 -1125 -91 -276
-127 -505 -136 -872 -3 -124 -10 -242 -15 -262 -20 -78 -96 -130 -214 -143
-144 -17 -244 -56 -436 -172 -135 -81 -236 -117 -392 -138 -292 -40 -472 -168
-552 -396 -12 -34 -12 -39 5 -54 12 -11 45 -20 82 -24 91 -10 92 -10 84 -102
-9 -96 1 -119 49 -119 27 0 147 32 210 57 25 9 45 -27 45 -82 0 -108 27 -128
129 -100 77 22 129 15 221 -31 95 -48 111 -70 104 -143 -11 -97 21 -109 156
-59 114 42 130 45 146 23 8 -11 14 -43 14 -80 0 -105 31 -124 144 -85 32 11
92 26 134 34 43 8 115 24 162 35 154 36 231 42 615 51 209 5 412 14 450 19 39
6 183 11 320 11 401 0 787 25 1190 76 228 29 259 40 290 103 39 77 34 75 248
83 265 8 414 42 598 134 254 127 432 336 574 674 15 36 69 151 120 255 234
481 380 596 754 595 159 -1 204 -5 701 -74 809 -112 921 -118 993 -52 79 73
52 216 -118 625 -41 99 -75 185 -75 190 0 7 30 11 79 11 96 0 137 13 156 51
43 83 -7 153 -195 276 -209 137 -201 124 -121 202 34 32 61 65 61 74 0 65
-257 204 -469 254 -108 25 -227 32 -384 22 -534 -33 -964 -188 -1332 -479
-177 -140 -377 -371 -507 -585 -93 -153 -94 -154 -142 -436 l-46 -264 -73
-180 c-41 -99 -91 -214 -112 -255 -197 -391 -578 -556 -881 -381 -55 32 -153
117 -183 160 l-20 27 172 1 c428 2 680 91 771 272 32 63 33 86 1 115 -41 38
-33 68 38 144 71 76 85 108 63 151 -42 81 -159 85 -242 10 -21 -19 -21 -19
-45 0 -24 19 -24 19 -5 40 11 12 53 40 95 63 129 71 184 136 197 231 6 40 4
45 -17 50 -33 9 -198 8 -294 -2 l-80 -9 -46 34 c-112 82 -228 113 -459 123
-257 11 -268 22 -315 307 -59 357 -112 576 -185 759 -41 103 -71 160 -148 285
-79 127 -114 203 -146 313 -36 125 -46 214 -56 507 -8 262 -6 292 24 312 52
35 515 -49 815 -148 124 -41 176 -63 215 -92 70 -53 89 -62 130 -62 50 0 96
42 103 95 6 45 -7 83 -159 468 -50 126 -88 231 -85 233 11 11 165 -38 255 -81
132 -63 215 -121 320 -225 51 -49 104 -93 119 -96 34 -9 92 21 112 57 13 24
12 38 -12 150 -53 245 -175 433 -420 649 -58 51 -91 86 -82 88 25 6 184 -38
272 -75 46 -19 122 -59 168 -88 105 -66 117 -70 154 -50 77 39 67 86 -52 267
-300 456 -603 724 -994 879 -159 63 -169 78 -160 235 13 198 -23 396 -99 547
-57 113 -109 183 -226 304 -103 107 -114 125 -109 173 3 26 49 58 103 73 29 8
94 24 143 36 255 60 454 221 692 557 160 226 304 505 518 999 312 721 514
1063 808 1362 147 149 155 168 102 223 -44 46 -80 40 -313 -45z m-432 -743
l22 -18 -140 -304 c-563 -1228 -640 -1369 -866 -1596 -162 -163 -307 -257
-506 -329 -138 -49 -198 -24 -309 133 -38 55 -85 112 -104 128 l-35 29 37 125
c254 861 767 1429 1593 1764 73 30 149 61 168 70 48 21 113 20 140 -2z m-3769
-1264 c31 -16 94 -60 140 -96 115 -91 549 -523 549 -545 0 -9 -11 -22 -24 -28
-21 -10 -42 -3 -148 45 -116 54 -154 78 -293 185 -49 39 -65 45 -114 49 -76 5
-104 -9 -277 -148 -166 -133 -347 -256 -456 -311 -93 -47 -261 -104 -333 -115
-27 -3 -71 -17 -97 -30 -113 -57 -121 -57 -803 -61 l-629 -4 18 20 c33 37 165
122 250 162 l84 39 224 0 225 0 124 34 c395 109 698 259 964 477 39 31 124
111 191 177 197 195 268 222 405 150z m419 -1263 c189 -60 320 -151 320 -222
0 -11 -23 -59 -51 -108 -156 -271 -192 -511 -119 -786 33 -125 25 -169 -32
-188 -18 -6 -96 -22 -173 -36 -165 -30 -301 -59 -407 -86 -241 -61 -378 14
-477 263 -82 208 -96 370 -47 553 47 180 129 321 249 431 105 97 270 180 401
204 89 16 241 4 336 -25z m1390 0 c104 -33 144 -53 238 -118 166 -114 291
-296 354 -513 20 -69 23 -101 22 -244 0 -149 -3 -173 -27 -253 -83 -269 -250
-469 -490 -583 -218 -103 -476 -103 -694 1 -248 117 -428 345 -500 633 -26
102 -23 311 5 426 84 338 345 596 677 670 112 25 307 16 415 -19z m949 -1360
c116 -56 271 -156 371 -240 140 -117 414 -415 397 -431 -5 -5 -151 24 -545
107 -82 17 -96 17 -127 5 -36 -15 -65 -59 -65 -99 0 -33 29 -60 107 -101 156
-82 367 -261 470 -399 48 -63 149 -244 141 -252 -1 -2 -52 26 -112 62 -147 87
-268 139 -406 175 -206 52 -269 47 -305 -22 -24 -47 -18 -72 37 -155 66 -102
147 -272 192 -409 20 -60 35 -110 34 -112 -4 -3 -191 52 -388 114 -276 88
-487 122 -796 129 -245 6 -383 -3 -589 -38 -280 -47 -471 -105 -935 -284 -382
-147 -681 -247 -830 -277 -98 -20 -144 -23 -310 -22 -185 1 -201 2 -315 32
-149 39 -342 133 -470 229 -113 84 -268 239 -364 363 -41 52 -132 182 -202
288 -166 249 -169 270 -37 291 141 23 315 96 363 153 29 35 55 116 55 174 0
23 -7 95 -16 160 l-16 118 21 17 c28 23 60 27 316 39 613 30 1234 113 1938
259 164 34 249 39 304 16 21 -9 92 -72 172 -153 143 -144 211 -193 342 -245
100 -40 174 -57 278 -65 364 -29 699 132 900 433 80 120 107 151 154 175 60
30 119 22 236 -35z m-5469 -202 c78 -22 90 -29 149 -86 96 -94 106 -134 53
-206 -51 -69 -147 -87 -300 -55 -229 47 -320 136 -297 290 6 40 11 47 42 60
88 37 215 36 353 -3z m1160 -2057 c93 -20 148 -50 174 -96 19 -32 21 -51 21
-200 -1 -91 -4 -182 -8 -203 l-8 -37 -36 27 c-97 74 -188 229 -229 390 -29
117 -31 146 -6 140 9 -3 51 -13 92 -21z m859 -165 c11 -19 -19 -465 -32 -477
-3 -3 -44 32 -90 77 -75 75 -90 96 -140 202 -32 65 -57 131 -57 147 0 53 41
68 197 69 101 1 113 -1 122 -18z m4125 -2437 c19 -7 20 -38 5 -97 -9 -38 -16
-44 -62 -65 -66 -28 -81 -28 -101 3 -24 37 -20 61 20 105 42 47 99 69 138 54z
m-44 -334 c14 -27 -2 -79 -33 -108 -27 -25 -110 -62 -141 -62 -48 0 -61 51
-26 107 40 66 176 108 200 63z m-4455 -552 c-108 -55 -282 -136 -343 -159 -20
-8 -21 -6 -13 9 6 10 30 41 55 69 80 88 212 141 356 142 l65 0 -120 -61z m280
-69 c4 -6 4 -25 1 -44 -6 -29 -17 -39 -83 -77 -41 -24 -94 -59 -117 -79 -22
-20 -59 -45 -81 -57 -41 -20 -154 -42 -220 -42 l-36 0 22 39 c43 78 128 145
283 224 74 38 216 61 231 36z m295 -125 c22 -9 40 -19 40 -23 0 -8 -68 -49
-158 -96 -41 -21 -88 -55 -106 -77 -18 -21 -37 -38 -41 -38 -5 0 -39 -18 -76
-40 -97 -57 -131 -53 -145 20 -7 31 -2 37 72 107 48 46 101 85 134 101 143 65
207 75 280 46z m310 -112 c0 -20 -73 -74 -152 -111 -47 -22 -95 -52 -105 -65
-22 -27 -150 -86 -204 -93 -29 -4 -39 -1 -47 13 -17 33 -2 83 32 108 50 38
156 93 222 115 89 30 254 51 254 33z m173 -131 c15 -15 -1 -60 -30 -84 -15
-12 -45 -38 -67 -57 -62 -54 -196 -138 -250 -156 -51 -18 -158 -16 -177 3 -22
22 20 90 87 143 35 28 64 55 64 60 0 6 7 10 16 10 9 0 62 20 118 44 55 24 110
46 121 49 27 8 107 -1 118 -12z m283 -120 c63 -39 99 -133 71 -187 -36 -69
-42 -71 -320 -111 -141 -20 -259 -34 -262 -32 -2 3 0 22 6 43 7 27 35 63 93
122 71 72 96 90 187 134 117 56 172 64 225 31z"/>
<path d="M4937 7946 c-115 -32 -158 -140 -100 -252 37 -72 130 -115 203 -93
84 25 126 98 117 202 -11 120 -98 177 -220 143z"/>
<path d="M5735 7926 c-43 -18 -93 -79 -101 -121 -15 -83 10 -148 76 -192 125
-86 291 13 276 165 -2 29 -14 68 -26 86 -39 65 -150 95 -225 62z"/>
</g>
</svg>
